<svg width="15" height="17" viewBox="0 0 15 17" fill="none" xmlns="http://www.w3.org/2000/svg">
<path d="M5.2251 14.125V15.7652" stroke="#1B1C1F" stroke-linecap="round" stroke-linejoin="round"/>
<path d="M3.2749 11.6641H7.1749" stroke="#1B1C1F" stroke-linecap="round" stroke-linejoin="round"/>
<path d="M3.2749 9.20312H7.1749" stroke="#1B1C1F" stroke-linecap="round" stroke-linejoin="round"/>
<path d="M3.2749 6.74243H7.1749" stroke="#1B1C1F" stroke-linecap="round" stroke-linejoin="round"/>
<path d="M12.375 7.56184V1.82069C12.3771 1.60585 12.3098 1.39874 12.188 1.24487C12.0661 1.09099 11.8996 1.00292 11.725 1H5.54995C5.37534 1.00292 5.20882 1.09099 5.08694 1.24487C4.96507 1.39874 4.89782 1.60585 4.89995 1.82069V4.28154" stroke="#1B1C1F" stroke-linecap="round" stroke-linejoin="round"/>
<path d="M1.64995 15.765V5.10219C1.64782 4.88734 1.71507 4.68024 1.83694 4.52636C1.95882 4.37248 2.12534 4.28441 2.29995 4.28149H8.14995C8.32456 4.28441 8.49109 4.37248 8.61296 4.52636C8.73483 4.68024 8.80209 4.88734 8.79995 5.10219V15.7663" stroke="#1B1C1F" stroke-linecap="round" stroke-linejoin="round"/>
<path d="M1 15.7651H14" stroke="#1B1C1F" stroke-linecap="round" stroke-linejoin="round"/>
<path d="M12.3701 13.3042V15.765" stroke="#2F87FF" stroke-linecap="round" stroke-linejoin="round"/>
<path d="M12.375 13.3043C12.1589 13.301 11.9454 13.2452 11.7467 13.1403C11.5481 13.0354 11.3681 12.8834 11.2172 12.6929C11.0663 12.5024 10.9474 12.2773 10.8672 12.0302C10.7871 11.7832 10.7472 11.5192 10.75 11.2532V9.61306C10.7424 9.34459 10.7787 9.07697 10.8569 8.82616C10.9352 8.57536 11.0536 8.3465 11.2053 8.15324C11.3569 7.95999 11.5387 7.80629 11.7396 7.70131C11.9406 7.59634 12.1567 7.54224 12.375 7.54224C12.5934 7.54224 12.8094 7.59634 13.0104 7.70131C13.2114 7.80629 13.3931 7.95999 13.5448 8.15324C13.6964 8.3465 13.8149 8.57536 13.8931 8.82616C13.9713 9.07697 14.0077 9.34459 14 9.61306V11.2532C14.0028 11.5192 13.963 11.7832 13.8828 12.0302C13.8026 12.2773 13.6837 12.5024 13.5328 12.6929C13.3819 12.8834 13.202 13.0354 13.0033 13.1403C12.8047 13.2452 12.5912 13.301 12.375 13.3043Z" fill="#2F87FF" stroke="#2F87FF" stroke-linecap="round" stroke-linejoin="round"/>
</svg>
