<svg width="15" height="16" viewBox="0 0 15 16" fill="none" xmlns="http://www.w3.org/2000/svg">
<path d="M12.7 6.21216V14.5347" stroke="#1B1C1F" stroke-linecap="round" stroke-linejoin="round"/>
<path d="M14 7.36864L7.906 1.9437C7.79503 1.84538 7.66175 1.79248 7.525 1.79248C7.38825 1.79248 7.25497 1.84538 7.144 1.9437L1 7.36864" stroke="#1B1C1F" stroke-linecap="round" stroke-linejoin="round"/>
<path d="M12.3749 5.57225V1.39866C12.3749 1.3462 12.3665 1.29426 12.3501 1.24581C12.3338 1.19737 12.3098 1.15336 12.2797 1.11633C12.2495 1.0793 12.2136 1.04996 12.1742 1.02999C12.1348 1.01003 12.0925 0.99984 12.0499 1H10.0999C10.0573 0.99984 10.015 1.01003 9.97561 1.02999C9.93618 1.04996 9.90035 1.0793 9.87015 1.11633C9.83996 1.15336 9.81601 1.19737 9.79966 1.24581C9.78332 1.29426 9.7749 1.3462 9.7749 1.39866V3.47561" stroke="#1B1C1F" stroke-linecap="round" stroke-linejoin="round"/>
<path d="M14 14.5347H1" stroke="#1B1C1F" stroke-linecap="round" stroke-linejoin="round"/>
<path d="M2.30005 6.2207V14.5347" stroke="#1B1C1F" stroke-linecap="round" stroke-linejoin="round"/>
<path d="M10.5751 9.75806H8.9751C8.69896 9.75806 8.4751 10.0335 8.4751 10.3733V11.5311C8.4751 11.8709 8.69896 12.1463 8.9751 12.1463H10.5751C10.8512 12.1463 11.0751 11.8709 11.0751 11.5311V10.3733C11.0751 10.0335 10.8512 9.75806 10.5751 9.75806Z" fill="#2F87FF" stroke="#2F87FF" stroke-linecap="round" stroke-linejoin="round"/>
<path d="M4.25 14.5346V10.1567C4.25 10.1043 4.25841 10.0523 4.27476 10.0039C4.2911 9.95542 4.31506 9.91142 4.34525 9.87439C4.37544 9.83735 4.41128 9.80801 4.4507 9.78805C4.49013 9.76809 4.53237 9.7579 4.575 9.75806H6.2C6.24263 9.7579 6.28487 9.76809 6.3243 9.78805C6.36372 9.80801 6.39956 9.83735 6.42975 9.87439C6.45994 9.91142 6.4839 9.95542 6.50024 10.0039C6.51659 10.0523 6.525 10.1043 6.525 10.1567V14.5358" stroke="#1B1C1F" stroke-linecap="round" stroke-linejoin="round"/>
</svg>
