<svg width="30" height="22" viewBox="0 0 30 22" fill="none" xmlns="http://www.w3.org/2000/svg">
<path d="M8.00039 8.858C10.1267 8.858 11.8504 7.09893 11.8504 4.929C11.8504 2.75907 10.1267 1 8.00039 1C5.87409 1 4.15039 2.75907 4.15039 4.929C4.15039 7.09893 5.87409 8.858 8.00039 8.858Z" stroke="#4985F7" stroke-width="1.5" stroke-linecap="round" stroke-linejoin="round"/>
<path d="M22.0004 8.858C24.1267 8.858 25.8504 7.09893 25.8504 4.929C25.8504 2.75907 24.1267 1 22.0004 1C19.8741 1 18.1504 2.75907 18.1504 4.929C18.1504 7.09893 19.8741 8.858 22.0004 8.858Z" fill="#4985F7" stroke="#4985F7" stroke-width="1.5" stroke-linecap="round" stroke-linejoin="round"/>
<path d="M29.0004 20.9999C29.0004 20.0807 28.8193 19.1704 28.4675 18.3211C28.1157 17.4719 27.6001 16.7002 26.9501 16.0502C26.3001 15.4002 25.5284 14.8846 24.6791 14.5328C23.8299 14.181 22.9196 13.9999 22.0004 13.9999C21.0811 13.9999 20.1708 14.181 19.3216 14.5328C18.4723 14.8846 17.7006 15.4002 17.0506 16.0502C16.4006 16.7002 15.885 17.4719 15.5332 18.3211C15.1814 19.1704 15.0004 20.0807 15.0004 20.9999C15.019 19.1245 14.2921 17.3185 12.9794 15.979C11.6667 14.6395 9.87573 13.8762 8.00035 13.8569C6.12497 13.8762 4.33401 14.6395 3.02132 15.979C1.70863 17.3185 0.98169 19.1245 1.00035 20.9999" stroke="#1B1C1F" stroke-width="1.5" stroke-linecap="round" stroke-linejoin="round"/>
</svg>
