<svg width="22" height="22" viewBox="0 0 22 22" fill="none" xmlns="http://www.w3.org/2000/svg">
<path d="M4.354 12.5791H2C1.44772 12.5791 1 13.0268 1 13.5791V20.0001C1 20.5524 1.44772 21.0001 2 21.0001H4.354C4.90628 21.0001 5.354 20.5524 5.354 20.0001V13.5791C5.354 13.0268 4.90628 12.5791 4.354 12.5791Z" stroke="#1B1C1F" stroke-width="1.5" stroke-linecap="round" stroke-linejoin="round"/>
<path d="M11.8845 16.789H14.4245C14.8934 16.7899 15.3505 16.6425 15.7305 16.368L18.3605 14.461C18.6806 14.2304 19.0712 14.119 19.4647 14.1461C19.8583 14.1731 20.23 14.3368 20.5155 14.609C20.6683 14.7543 20.79 14.9292 20.8732 15.1231C20.9563 15.3169 20.9992 15.5256 20.9992 15.7365C20.9992 15.9474 20.9563 16.1561 20.8732 16.3499C20.79 16.5438 20.6683 16.7187 20.5155 16.864L18.2585 19.046C17.644 19.6372 16.871 20.0374 16.0335 20.198L12.8445 20.815C12.212 20.9372 11.5607 20.9222 10.9345 20.771L8.04952 20.071C7.70415 19.987 7.34995 19.9447 6.99452 19.945H5.35352" stroke="#1B1C1F" stroke-width="1.5" stroke-linecap="round" stroke-linejoin="round"/>
<path d="M11.8845 16.79H13.5035C13.7165 16.7936 13.9282 16.7552 14.1263 16.677C14.3245 16.5987 14.5053 16.4822 14.6584 16.3341C14.8115 16.186 14.934 16.0092 15.0188 15.8137C15.1036 15.6183 15.149 15.408 15.1525 15.195V14.876C15.1493 14.5151 15.0242 14.1658 14.7975 13.885C14.5707 13.6041 14.2557 13.4082 13.9035 13.329L11.4035 12.729C10.9974 12.6312 10.5812 12.5819 10.1635 12.582C9.15795 12.5806 8.1733 12.8692 7.32752 13.413L5.35352 14.684" stroke="#1B1C1F" stroke-width="1.5" stroke-linecap="round" stroke-linejoin="round"/>
<path d="M12.3737 3.28806H7.33871C7.05226 3.28775 6.77676 3.3981 6.56971 3.59606L5.66971 4.46406C5.56916 4.56014 5.48912 4.6756 5.43444 4.80348C5.37976 4.93135 5.35156 5.06899 5.35156 5.20806C5.35156 5.34714 5.37976 5.48477 5.43444 5.61265C5.48912 5.74052 5.56916 5.85599 5.66971 5.95206L6.56971 6.82406C6.77731 7.02242 7.05359 7.13279 7.34071 7.13206H12.3737H12.3867C12.8439 7.97377 13.5651 8.64179 14.4394 9.03317C15.3136 9.42456 16.2923 9.51758 17.2246 9.29792C18.1569 9.07826 18.9911 8.55809 19.5987 7.81759C20.2062 7.07708 20.5534 6.15733 20.5867 5.20006C20.5672 4.06753 20.099 2.98904 19.2849 2.20152C18.4707 1.41401 17.3773 0.981875 16.2447 1.00006C15.4569 0.999683 14.6836 1.21219 14.0066 1.61511C13.3296 2.01803 12.7741 2.5964 12.3987 3.28906" fill="#4996FF"/>
<path d="M12.3737 3.28806H7.33871C7.05226 3.28775 6.77676 3.3981 6.56971 3.59606L5.66971 4.46406C5.56916 4.56014 5.48912 4.6756 5.43444 4.80348C5.37976 4.93135 5.35156 5.06899 5.35156 5.20806C5.35156 5.34714 5.37976 5.48477 5.43444 5.61265C5.48912 5.74052 5.56916 5.85599 5.66971 5.95206L6.56971 6.82406C6.77731 7.02242 7.05359 7.13279 7.34071 7.13206H12.3737H12.3867C12.8439 7.97377 13.5651 8.64179 14.4394 9.03317C15.3136 9.42456 16.2923 9.51758 17.2246 9.29792C18.1569 9.07826 18.9911 8.55809 19.5987 7.81759C20.2062 7.07708 20.5534 6.15733 20.5867 5.20006C20.5672 4.06753 20.099 2.98904 19.2849 2.20152C18.4707 1.41401 17.3773 0.981875 16.2447 1.00006C15.4569 0.999683 14.6836 1.21219 14.0066 1.61511C13.3296 2.01803 12.7741 2.5964 12.3987 3.28906" stroke="#4996FF" stroke-width="1.5" stroke-linecap="round" stroke-linejoin="round"/>
<path d="M16.242 5.48805C16.296 5.48609 16.3481 5.46831 16.392 5.43692C16.4359 5.40554 16.4696 5.36193 16.4889 5.31154C16.5081 5.26115 16.5122 5.2062 16.5005 5.15353C16.4888 5.10086 16.4618 5.0528 16.423 5.01534C16.3842 4.97787 16.3352 4.95266 16.2821 4.94283C16.2291 4.93301 16.1743 4.939 16.1246 4.96008C16.0749 4.98116 16.0326 5.01638 16.0028 5.06136C15.973 5.10634 15.9571 5.15909 15.957 5.21305C15.9576 5.24986 15.9654 5.28621 15.98 5.31999C15.9946 5.35377 16.0158 5.38433 16.0423 5.40989C16.0688 5.43545 16.1001 5.45552 16.1343 5.46893C16.1686 5.48235 16.2052 5.48885 16.242 5.48805Z" stroke="white" stroke-width="1.5" stroke-linecap="round" stroke-linejoin="round"/>
</svg>
