<svg width="19" height="14" viewBox="0 0 19 14" fill="none" xmlns="http://www.w3.org/2000/svg">
<path d="M5.31992 5.55291C6.61089 5.55291 7.65742 4.53371 7.65742 3.27645C7.65742 2.0192 6.61089 1 5.31992 1C4.02896 1 2.98242 2.0192 2.98242 3.27645C2.98242 4.53371 4.02896 5.55291 5.31992 5.55291Z" stroke="#717274" stroke-width="1.5" stroke-linecap="round" stroke-linejoin="round"/>
<path d="M13.8199 5.55291C15.1109 5.55291 16.1574 4.53371 16.1574 3.27645C16.1574 2.0192 15.1109 1 13.8199 1C12.529 1 11.4824 2.0192 11.4824 3.27645C11.4824 4.53371 12.529 5.55291 13.8199 5.55291Z" stroke="#717274" stroke-width="1.5" stroke-linecap="round" stroke-linejoin="round"/>
<path d="M18.0703 12.5908C18.0703 11.4637 17.6225 10.3826 16.8255 9.58562C16.0285 8.78859 14.9475 8.34082 13.8203 8.34082C12.6931 8.34082 11.6121 8.78859 10.8151 9.58562C10.0181 10.3826 9.57031 11.4637 9.57031 12.5908C9.55525 11.4784 9.09912 10.4175 8.30218 9.64133C7.50524 8.86511 6.43271 8.43708 5.32031 8.45132C4.20792 8.43708 3.13539 8.86511 2.33845 9.64133C1.54151 10.4175 1.08538 11.4784 1.07031 12.5908" stroke="#717274" stroke-width="1.5" stroke-linecap="round" stroke-linejoin="round"/>
</svg>
