<svg width="42" height="43" viewBox="0 0 42 43" fill="none" xmlns="http://www.w3.org/2000/svg">
<path d="M27.667 40.4731H33.698C34.2778 40.477 34.8527 40.3667 35.3899 40.1484C35.9271 39.9301 36.416 39.6081 36.8287 39.2008C37.2414 38.7935 37.5698 38.3088 37.7951 37.7746C38.0205 37.2403 38.1383 36.6669 38.142 36.0871V3.19306C38.1399 2.90297 38.0807 2.61613 37.9677 2.34892C37.8548 2.08171 37.6903 1.83937 37.4837 1.63573C37.2771 1.43209 37.0324 1.27114 36.7636 1.16207C36.4948 1.053 36.2071 0.99795 35.917 1.00006H31.794C31.2086 0.996598 30.6459 1.22561 30.2292 1.63679C29.8126 2.04798 29.5762 2.60771 29.572 3.19306V8.25006" stroke="#1B1C1F" stroke-width="1.5" stroke-linecap="round" stroke-linejoin="round"/>
<path d="M1.00098 17.9171L18.107 3.44707C18.9164 2.76527 19.9407 2.39136 20.999 2.39136C22.0573 2.39136 23.0816 2.76527 23.891 3.44707L41 17.9171" stroke="#1B1C1F" stroke-width="1.5" stroke-linecap="round" stroke-linejoin="round"/>
<path d="M1.61103 33.4871L3.08703 35.3871L3.40703 37.7581C3.49616 38.4021 3.79504 38.9989 4.25744 39.4561C4.71983 39.9132 5.31997 40.2053 5.96503 40.2871L8.37403 40.6051L10.303 42.0611C10.8243 42.4529 11.4589 42.6648 12.111 42.6648C12.7632 42.6648 13.3977 42.4529 13.919 42.0611L15.85 40.6061L18.25 40.2871C18.8947 40.2059 19.4948 39.9148 19.9575 39.4586C20.4202 39.0024 20.7198 38.4065 20.81 37.7631L21.132 35.3861C21.132 35.3861 21.879 34.4231 22.608 33.4861C23.0046 32.9759 23.2198 32.3482 23.2198 31.7021C23.2198 31.0559 23.0046 30.4282 22.608 29.9181L21.132 28.0121L20.812 25.6411C20.7223 24.9975 20.4231 24.4014 19.9608 23.9449C19.4985 23.4883 18.8986 23.1967 18.254 23.1151L15.85 22.7971L13.921 21.3411C13.3997 20.9492 12.7652 20.7373 12.113 20.7373C11.4609 20.7373 10.8263 20.9492 10.305 21.3411L8.37103 22.7971L5.97103 23.1131C5.32634 23.1942 4.7263 23.4853 4.2636 23.9415C3.80089 24.3977 3.50128 24.9936 3.41103 25.6371L3.08903 28.0141C3.08903 28.0141 2.34203 28.9771 1.61303 29.9141C1.21499 30.4244 0.998654 31.053 0.998291 31.7002C0.997929 32.3474 1.21356 32.9763 1.61103 33.4871Z" fill="#4996FF"/>
<path d="M15.5701 29.9971L11.2471 34.2621L8.65405 31.7031" stroke="white" stroke-width="1.5" stroke-linecap="round" stroke-linejoin="round"/>
</svg>
