<svg width="26" height="28" viewBox="0 0 26 28" fill="none" xmlns="http://www.w3.org/2000/svg">
<path d="M11.102 5.65698L4.97302 11.948" stroke="#1B1C1F" stroke-width="1.5" stroke-linecap="round" stroke-linejoin="round"/>
<path d="M21 11.92L14.897 5.65698" stroke="#1B1C1F" stroke-width="1.5" stroke-linecap="round" stroke-linejoin="round"/>
<path d="M23 11.947H3C1.89543 11.947 1 12.8425 1 13.947V25C1 26.1046 1.89543 27 3 27H23C24.1046 27 25 26.1046 25 25V13.947C25 12.8425 24.1046 11.947 23 11.947Z" stroke="#1B1C1F" stroke-width="1.5" stroke-linecap="round" stroke-linejoin="round"/>
<path d="M15.667 17.4209H19.667" stroke="#2F87FF" stroke-width="1.5" stroke-linecap="round" stroke-linejoin="round"/>
<path d="M15.667 21.5259H17" stroke="#2F87FF" stroke-width="1.5" stroke-linecap="round" stroke-linejoin="round"/>
<path d="M11.666 19.136V21.755C11.6668 21.8141 11.656 21.8727 11.6341 21.9276C11.6122 21.9825 11.5797 22.0326 11.5385 22.0749C11.4973 22.1173 11.4481 22.1511 11.3938 22.1744C11.3395 22.1978 11.2811 22.2102 11.222 22.211H6.77705C6.71795 22.2102 6.65959 22.1978 6.60529 22.1744C6.55099 22.1511 6.50183 22.1173 6.4606 22.0749C6.41937 22.0326 6.38688 21.9825 6.365 21.9276C6.34311 21.8727 6.33226 21.8141 6.33305 21.755V19.087C6.33238 18.951 6.3619 18.8166 6.41949 18.6935C6.47708 18.5704 6.56129 18.4616 6.66605 18.375L8.41305 16.937C8.56895 16.8078 8.76507 16.7371 8.96755 16.7371C9.17003 16.7371 9.36615 16.8078 9.52205 16.937L11.333 18.423C11.4378 18.5098 11.522 18.6188 11.5795 18.7421C11.6371 18.8654 11.6667 18.9999 11.666 19.136Z" fill="#2F87FF" stroke="#2F87FF" stroke-width="1.5" stroke-linecap="round" stroke-linejoin="round"/>
<path d="M13 1C13.3549 1.0043 13.7055 1.07855 14.0317 1.21848C14.3579 1.35841 14.6533 1.56129 14.901 1.8155C15.1487 2.06971 15.3439 2.37027 15.4753 2.69999C15.6068 3.0297 15.6719 3.38209 15.667 3.737C15.679 4.0947 15.6189 4.45115 15.4903 4.78514C15.3617 5.11913 15.1672 5.42384 14.9184 5.68112C14.6697 5.9384 14.3716 6.14299 14.0421 6.28272C13.7127 6.42244 13.3584 6.49445 13.0005 6.49445C12.6426 6.49445 12.2884 6.42244 11.9589 6.28272C11.6294 6.14299 11.3314 5.9384 11.0826 5.68112C10.8338 5.42384 10.6393 5.11913 10.5107 4.78514C10.3821 4.45115 10.322 4.0947 10.334 3.737C10.3291 3.38217 10.3942 3.02986 10.5256 2.70022C10.657 2.37057 10.852 2.07005 11.0997 1.81585C11.3473 1.56165 11.6425 1.35875 11.9686 1.21876C12.2947 1.07877 12.6452 1.00443 13 1Z" stroke="#2F87FF" stroke-width="1.5" stroke-linecap="round" stroke-linejoin="round"/>
</svg>
