<svg width="26" height="26" viewBox="0 0 26 26" fill="none" xmlns="http://www.w3.org/2000/svg">
<path d="M17 24.684H20.619C20.967 24.6863 21.3121 24.6199 21.6345 24.4887C21.9569 24.3575 22.2502 24.1641 22.4978 23.9195C22.7454 23.6749 22.9424 23.3839 23.0774 23.0631C23.2125 22.7423 23.283 22.3981 23.285 22.05V2.31604C23.2838 2.14195 23.2483 1.9698 23.1806 1.80943C23.1129 1.64906 23.0142 1.50361 22.8902 1.38139C22.7662 1.25918 22.6194 1.16259 22.4581 1.09716C22.2967 1.03172 22.1241 0.99872 21.95 1.00004H19.476C19.1248 0.997909 18.787 1.13533 18.5371 1.3821C18.2871 1.62887 18.1454 1.9648 18.143 2.31604V5.35004" stroke="#1B1C1F" stroke-width="1.5" stroke-linecap="round" stroke-linejoin="round"/>
<path d="M1 11.15L11.264 2.46803C11.7497 2.05872 12.3644 1.83423 12.9995 1.83423C13.6346 1.83423 14.2493 2.05872 14.735 2.46803L25 11.15" stroke="#1B1C1F" stroke-width="1.5" stroke-linecap="round" stroke-linejoin="round"/>
<path d="M1.36698 20.4921L2.24998 21.6351L2.44198 23.0571C2.49579 23.4434 2.67529 23.8011 2.95273 24.0751C3.23017 24.3491 3.59013 24.5242 3.97698 24.5731L5.42198 24.7641L6.57898 25.6381C6.89169 25.8732 7.27229 26.0003 7.66348 26.0003C8.05467 26.0003 8.43528 25.8732 8.74798 25.6381L9.90698 24.7641L11.35 24.5751C11.7367 24.5265 12.0967 24.3518 12.3743 24.0782C12.6519 23.8045 12.8317 23.4471 12.886 23.0611L13.079 21.6351C13.079 21.6351 13.527 21.0571 13.964 20.4931C14.202 20.187 14.3312 19.8104 14.3312 19.4226C14.3312 19.0349 14.202 18.6582 13.964 18.3521L13.079 17.2091L12.887 15.7871C12.8335 15.4003 12.6539 15.0418 12.376 14.7674C12.0981 14.493 11.7375 14.3178 11.35 14.2691L9.90498 14.0781L8.74998 13.2051C8.43728 12.9701 8.05667 12.843 7.66548 12.843C7.27429 12.843 6.89369 12.9701 6.58098 13.2051L5.42198 14.0791L3.97898 14.2681C3.59336 14.3183 3.23488 14.4937 2.95864 14.7674C2.68241 15.0411 2.5037 15.398 2.44998 15.7831L2.24998 17.2091C2.24998 17.2091 1.80198 17.7871 1.36498 18.3511C1.12727 18.6575 0.998418 19.0343 0.99878 19.422C0.999142 19.8097 1.1287 20.1863 1.36698 20.4921Z" fill="#4996FF"/>
<path d="M9.74104 18.3979L7.14804 20.9569L5.59204 19.4249" stroke="white" stroke-width="1.5" stroke-linecap="round" stroke-linejoin="round"/>
</svg>
