<svg width="272" height="74" viewBox="0 0 272 74" fill="none" xmlns="http://www.w3.org/2000/svg">
<path d="M16.89 8H21.75V29H16.89V8ZM7.35 29H2.49V8H7.35V29ZM17.25 20.39H6.99V16.28H17.25V20.39ZM36.9185 29.36C35.2585 29.36 33.7185 29.09 32.2985 28.55C30.8985 28.01 29.6785 27.25 28.6385 26.27C27.6185 25.29 26.8185 24.14 26.2385 22.82C25.6785 21.5 25.3985 20.06 25.3985 18.5C25.3985 16.94 25.6785 15.5 26.2385 14.18C26.8185 12.86 27.6285 11.71 28.6685 10.73C29.7085 9.75 30.9285 8.99 32.3285 8.45C33.7285 7.91 35.2485 7.64 36.8885 7.64C38.5485 7.64 40.0685 7.91 41.4485 8.45C42.8485 8.99 44.0585 9.75 45.0785 10.73C46.1185 11.71 46.9285 12.86 47.5085 14.18C48.0885 15.48 48.3785 16.92 48.3785 18.5C48.3785 20.06 48.0885 21.51 47.5085 22.85C46.9285 24.17 46.1185 25.32 45.0785 26.3C44.0585 27.26 42.8485 28.01 41.4485 28.55C40.0685 29.09 38.5585 29.36 36.9185 29.36ZM36.8885 25.22C37.8285 25.22 38.6885 25.06 39.4685 24.74C40.2685 24.42 40.9685 23.96 41.5685 23.36C42.1685 22.76 42.6285 22.05 42.9485 21.23C43.2885 20.41 43.4585 19.5 43.4585 18.5C43.4585 17.5 43.2885 16.59 42.9485 15.77C42.6285 14.95 42.1685 14.24 41.5685 13.64C40.9885 13.04 40.2985 12.58 39.4985 12.26C38.6985 11.94 37.8285 11.78 36.8885 11.78C35.9485 11.78 35.0785 11.94 34.2785 12.26C33.4985 12.58 32.8085 13.04 32.2085 13.64C31.6085 14.24 31.1385 14.95 30.7985 15.77C30.4785 16.59 30.3185 17.5 30.3185 18.5C30.3185 19.48 30.4785 20.39 30.7985 21.23C31.1385 22.05 31.5985 22.76 32.1785 23.36C32.7785 23.96 33.4785 24.42 34.2785 24.74C35.0785 25.06 35.9485 25.22 36.8885 25.22ZM61.361 29.36C58.381 29.36 56.051 28.53 54.371 26.87C52.691 25.21 51.851 22.84 51.851 19.76V8H56.711V19.58C56.711 21.58 57.121 23.02 57.941 23.9C58.761 24.78 59.911 25.22 61.391 25.22C62.871 25.22 64.021 24.78 64.841 23.9C65.661 23.02 66.071 21.58 66.071 19.58V8H70.871V19.76C70.871 22.84 70.031 25.21 68.351 26.87C66.671 28.53 64.341 29.36 61.361 29.36ZM82.5736 29.36C80.8936 29.36 79.2836 29.14 77.7436 28.7C76.2036 28.24 74.9636 27.65 74.0236 26.93L75.6736 23.27C76.5736 23.91 77.6336 24.44 78.8536 24.86C80.0936 25.26 81.3436 25.46 82.6036 25.46C83.5636 25.46 84.3336 25.37 84.9136 25.19C85.5136 24.99 85.9536 24.72 86.2336 24.38C86.5136 24.04 86.6536 23.65 86.6536 23.21C86.6536 22.65 86.4336 22.21 85.9936 21.89C85.5536 21.55 84.9736 21.28 84.2536 21.08C83.5336 20.86 82.7336 20.66 81.8536 20.48C80.9936 20.28 80.1236 20.04 79.2436 19.76C78.3836 19.48 77.5936 19.12 76.8736 18.68C76.1536 18.24 75.5636 17.66 75.1036 16.94C74.6636 16.22 74.4436 15.3 74.4436 14.18C74.4436 12.98 74.7636 11.89 75.4036 10.91C76.0636 9.91 77.0436 9.12 78.3436 8.54C79.6636 7.94 81.3136 7.64 83.2936 7.64C84.6136 7.64 85.9136 7.8 87.1936 8.12C88.4736 8.42 89.6036 8.88 90.5836 9.5L89.0836 13.19C88.1036 12.63 87.1236 12.22 86.1436 11.96C85.1636 11.68 84.2036 11.54 83.2636 11.54C82.3236 11.54 81.5536 11.65 80.9536 11.87C80.3536 12.09 79.9236 12.38 79.6636 12.74C79.4036 13.08 79.2736 13.48 79.2736 13.94C79.2736 14.48 79.4936 14.92 79.9336 15.26C80.3736 15.58 80.9536 15.84 81.6736 16.04C82.3936 16.24 83.1836 16.44 84.0436 16.64C84.9236 16.84 85.7936 17.07 86.6536 17.33C87.5336 17.59 88.3336 17.94 89.0536 18.38C89.7736 18.82 90.3536 19.4 90.7936 20.12C91.2536 20.84 91.4836 21.75 91.4836 22.85C91.4836 24.03 91.1536 25.11 90.4936 26.09C89.8336 27.07 88.8436 27.86 87.5236 28.46C86.2236 29.06 84.5736 29.36 82.5736 29.36ZM99.2745 16.46H109.384V20.24H99.2745V16.46ZM99.6345 25.1H111.064V29H94.8045V8H110.674V11.9H99.6345V25.1ZM127.778 29V11.96H121.058V8H139.358V11.96H132.638V29H127.778ZM138.158 29L147.518 8H152.318L161.708 29H156.608L148.928 10.46H150.848L143.138 29H138.158ZM142.838 24.5L144.128 20.81H154.928L156.248 24.5H142.838ZM160.373 29L169.403 16.55V20.09L160.763 8H166.283L172.253 16.43L169.943 16.46L175.823 8H181.103L172.523 19.88V16.4L181.613 29H176.003L169.823 20.09H172.043L165.953 29H160.373ZM183.859 29V12.86H188.539V29H183.859ZM186.199 10.61C185.339 10.61 184.639 10.36 184.099 9.86C183.559 9.36 183.289 8.74 183.289 8C183.289 7.26 183.559 6.64 184.099 6.14C184.639 5.64 185.339 5.39 186.199 5.39C187.059 5.39 187.759 5.63 188.299 6.11C188.839 6.57 189.109 7.17 189.109 7.91C189.109 8.69 188.839 9.34 188.299 9.86C187.779 10.36 187.079 10.61 186.199 10.61ZM202.693 12.62C203.973 12.62 205.113 12.88 206.113 13.4C207.133 13.9 207.933 14.68 208.513 15.74C209.093 16.78 209.383 18.12 209.383 19.76V29H204.703V20.48C204.703 19.18 204.413 18.22 203.833 17.6C203.273 16.98 202.473 16.67 201.433 16.67C200.693 16.67 200.023 16.83 199.423 17.15C198.843 17.45 198.383 17.92 198.043 18.56C197.723 19.2 197.563 20.02 197.563 21.02V29H192.883V12.86H197.353V17.33L196.513 15.98C197.093 14.9 197.923 14.07 199.003 13.49C200.083 12.91 201.313 12.62 202.693 12.62ZM221.332 35.06C219.812 35.06 218.342 34.87 216.922 34.49C215.522 34.13 214.352 33.58 213.412 32.84L215.272 29.48C215.952 30.04 216.812 30.48 217.852 30.8C218.912 31.14 219.952 31.31 220.972 31.31C222.632 31.31 223.832 30.94 224.572 30.2C225.332 29.46 225.712 28.36 225.712 26.9V24.47L226.012 20.42L225.952 16.34V12.86H230.392V26.3C230.392 29.3 229.612 31.51 228.052 32.93C226.492 34.35 224.252 35.06 221.332 35.06ZM220.612 28.22C219.112 28.22 217.752 27.9 216.532 27.26C215.332 26.6 214.362 25.69 213.622 24.53C212.902 23.35 212.542 21.98 212.542 20.42C212.542 18.84 212.902 17.47 213.622 16.31C214.362 15.13 215.332 14.22 216.532 13.58C217.752 12.94 219.112 12.62 220.612 12.62C221.972 12.62 223.172 12.9 224.212 13.46C225.252 14 226.062 14.85 226.642 16.01C227.222 17.15 227.512 18.62 227.512 20.42C227.512 22.2 227.222 23.67 226.642 24.83C226.062 25.97 225.252 26.82 224.212 27.38C223.172 27.94 221.972 28.22 220.612 28.22ZM221.542 24.38C222.362 24.38 223.092 24.22 223.732 23.9C224.372 23.56 224.872 23.09 225.232 22.49C225.592 21.89 225.772 21.2 225.772 20.42C225.772 19.62 225.592 18.93 225.232 18.35C224.872 17.75 224.372 17.29 223.732 16.97C223.092 16.63 222.362 16.46 221.542 16.46C220.722 16.46 219.992 16.63 219.352 16.97C218.712 17.29 218.202 17.75 217.822 18.35C217.462 18.93 217.282 19.62 217.282 20.42C217.282 21.2 217.462 21.89 217.822 22.49C218.202 23.09 218.712 23.56 219.352 23.9C219.992 24.22 220.722 24.38 221.542 24.38ZM239.889 21.71C239.889 21.01 239.999 20.39 240.219 19.85C240.459 19.31 240.749 18.83 241.089 18.41C241.449 17.99 241.829 17.6 242.229 17.24C242.629 16.88 242.999 16.54 243.339 16.22C243.699 15.88 243.989 15.53 244.209 15.17C244.449 14.81 244.569 14.41 244.569 13.97C244.569 13.25 244.269 12.67 243.669 12.23C243.089 11.79 242.309 11.57 241.329 11.57C240.389 11.57 239.549 11.77 238.809 12.17C238.069 12.55 237.459 13.09 236.979 13.79L233.349 11.66C234.149 10.44 235.259 9.47 236.679 8.75C238.099 8.01 239.819 7.64 241.839 7.64C243.339 7.64 244.659 7.86 245.799 8.3C246.939 8.72 247.829 9.34 248.469 10.16C249.129 10.98 249.459 11.99 249.459 13.19C249.459 13.97 249.339 14.66 249.099 15.26C248.859 15.86 248.549 16.38 248.169 16.82C247.789 17.26 247.379 17.67 246.939 18.05C246.519 18.43 246.119 18.8 245.739 19.16C245.359 19.52 245.039 19.9 244.779 20.3C244.539 20.7 244.419 21.17 244.419 21.71H239.889ZM242.169 29.24C241.329 29.24 240.639 28.97 240.099 28.43C239.559 27.89 239.289 27.25 239.289 26.51C239.289 25.75 239.559 25.12 240.099 24.62C240.639 24.1 241.329 23.84 242.169 23.84C243.029 23.84 243.719 24.1 244.239 24.62C244.779 25.12 245.049 25.75 245.049 26.51C245.049 27.25 244.779 27.89 244.239 28.43C243.719 28.97 243.029 29.24 242.169 29.24Z" fill="white"/>
<path d="M75.89 45H80.75V66H75.89V57.39H66.35V66H61.49V45H66.35V53.28H75.89V45ZM95.8885 66.36C89.2585 66.36 84.3985 61.74 84.3985 55.5C84.3985 49.26 89.2585 44.64 95.8885 44.64C102.489 44.64 107.379 49.23 107.379 55.5C107.379 61.77 102.489 66.36 95.8885 66.36ZM95.8885 62.22C99.6385 62.22 102.459 59.49 102.459 55.5C102.459 51.51 99.6385 48.78 95.8885 48.78C92.1385 48.78 89.3185 51.51 89.3185 55.5C89.3185 59.49 92.1385 62.22 95.8885 62.22ZM137.418 45H142.068L135.198 66H129.978L125.358 51.78L120.588 66H115.398L108.498 45H113.538L118.278 59.76L123.228 45H127.728L132.528 59.88L137.418 45ZM158.067 66V48.96H151.347V45H169.647V48.96H162.927V66H158.067ZM186.897 66L185.037 61.5H175.287L173.427 66H168.447L177.807 45H182.607L191.997 66H186.897ZM176.847 57.81H183.507L180.177 49.77L176.847 57.81ZM211.932 66H206.322L201.252 58.71L196.272 66H190.692L198.462 55.32L191.082 45H196.602L201.432 51.81L206.172 45H211.422L204.102 55.14L211.932 66ZM216.225 47.61C214.485 47.61 213.315 46.47 213.315 45C213.315 43.53 214.485 42.39 216.225 42.39C217.965 42.39 219.135 43.47 219.135 44.91C219.135 46.47 217.965 47.61 216.225 47.61ZM213.885 66V49.86H218.565V66H213.885ZM232.718 49.62C236.528 49.62 239.408 51.84 239.408 56.76V66H234.728V57.48C234.728 54.87 233.528 53.67 231.458 53.67C229.208 53.67 227.588 55.05 227.588 58.02V66H222.908V49.86H227.378V51.75C228.638 50.37 230.528 49.62 232.718 49.62ZM256.036 49.86H260.476V63.3C260.476 69.3 257.236 72.06 251.416 72.06C248.356 72.06 245.386 71.31 243.496 69.84L245.356 66.48C246.736 67.59 248.986 68.31 251.056 68.31C254.356 68.31 255.796 66.81 255.796 63.9V63.21C254.566 64.56 252.796 65.22 250.696 65.22C246.226 65.22 242.626 62.13 242.626 57.42C242.626 52.71 246.226 49.62 250.696 49.62C252.946 49.62 254.806 50.37 256.036 51.93V49.86ZM251.626 61.38C254.086 61.38 255.856 59.79 255.856 57.42C255.856 55.05 254.086 53.46 251.626 53.46C249.166 53.46 247.366 55.05 247.366 57.42C247.366 59.79 249.166 61.38 251.626 61.38ZM265.162 58.71L264.232 45H269.812L268.882 58.71H265.162ZM267.022 66.24C265.342 66.24 264.142 65.01 264.142 63.51C264.142 61.98 265.342 60.84 267.022 60.84C268.702 60.84 269.902 61.98 269.902 63.51C269.902 65.01 268.702 66.24 267.022 66.24Z" fill="white"/>
</svg>
