<svg width="25" height="25" viewBox="0 0 25 25" fill="none" xmlns="http://www.w3.org/2000/svg">
<path d="M17 0H8C3.58172 0 0 3.58172 0 8V17C0 21.4183 3.58172 25 8 25H17C21.4183 25 25 21.4183 25 17V8C25 3.58172 21.4183 0 17 0Z" fill="#2F87FF"/>
<path d="M17.015 17.998H7.985C7.74492 17.9987 7.50706 17.9519 7.28506 17.8605C7.06307 17.7691 6.86129 17.6348 6.6913 17.4652C6.5213 17.2957 6.38642 17.0943 6.2944 16.8726C6.20237 16.6508 6.155 16.4131 6.155 16.173V10.535C6.15503 10.3302 6.19886 10.1278 6.28355 9.94138C6.36823 9.75494 6.49181 9.58876 6.646 9.454L11.555 5.17C11.8172 4.94274 12.1525 4.81763 12.4995 4.81763C12.8465 4.81763 13.1818 4.94274 13.444 5.17L18.35 9.454C18.5042 9.58876 18.6278 9.75494 18.7124 9.94138C18.7971 10.1278 18.841 10.3302 18.841 10.535V16.173C18.8411 16.4127 18.794 16.6502 18.7024 16.8717C18.6107 17.0932 18.4763 17.2945 18.3068 17.4641C18.1373 17.6337 17.9361 17.7682 17.7146 17.86C17.4931 17.9518 17.2557 17.999 17.016 17.999M8.637 15.911H16.364C16.4672 15.911 16.5661 15.87 16.6391 15.7971C16.712 15.7241 16.753 15.6252 16.753 15.522V11.007C16.7529 10.9515 16.7411 10.8967 16.7181 10.8461C16.6952 10.7956 16.6617 10.7506 16.62 10.714L12.755 7.34C12.684 7.27824 12.5931 7.24422 12.499 7.24422C12.4049 7.24422 12.314 7.27824 12.243 7.34L8.379 10.714C8.33721 10.7505 8.30372 10.7956 8.28078 10.8461C8.25784 10.8966 8.24598 10.9515 8.246 11.007V15.521C8.246 15.6242 8.28698 15.7231 8.35993 15.7961C8.43289 15.869 8.53183 15.91 8.635 15.91" fill="white"/>
<path d="M12.795 17.999H16.33L13.475 20.176C13.4126 20.2235 13.3381 20.2527 13.2601 20.2601C13.182 20.2676 13.1034 20.2531 13.0331 20.2183C12.9628 20.1834 12.9036 20.1296 12.8623 20.063C12.8209 19.9963 12.799 19.9195 12.799 19.841L12.795 17.999Z" fill="white"/>
</svg>
