<svg width="75" height="19" viewBox="0 0 75 19" fill="none" xmlns="http://www.w3.org/2000/svg">
<path d="M7.10203 3.7H11.642V5.46H0.562031V3.7H5.08203V0.959999H7.10203V3.7ZM18.042 9.82H15.642V18.08H13.662V0.999999H15.642V7.92H18.042V9.82ZM6.10203 6.82C7.02203 6.82 7.84203 7.04 8.56203 7.48C9.28203 7.90667 9.84203 8.52 10.242 9.32C10.642 10.1067 10.842 11.0133 10.842 12.04C10.842 13.0667 10.642 13.98 10.242 14.78C9.84203 15.5667 9.28203 16.1733 8.56203 16.6C7.84203 17.04 7.02203 17.26 6.10203 17.26C5.18203 17.26 4.36203 17.04 3.64203 16.6C2.92203 16.1733 2.35536 15.5667 1.94203 14.78C1.54203 13.98 1.34203 13.0667 1.34203 12.04C1.34203 11.0133 1.54203 10.1067 1.94203 9.32C2.35536 8.52 2.92203 7.90667 3.64203 7.48C4.36203 7.04 5.18203 6.82 6.10203 6.82ZM6.10203 15.54C6.63537 15.54 7.11537 15.4 7.54203 15.12C7.9687 14.84 8.30203 14.4333 8.54203 13.9C8.79536 13.3667 8.92203 12.7467 8.92203 12.04C8.92203 11.3333 8.79536 10.7133 8.54203 10.18C8.30203 9.64667 7.9687 9.24 7.54203 8.96C7.11537 8.68 6.63537 8.54 6.10203 8.54C5.27536 8.54 4.59536 8.86 4.06203 9.5C3.5287 10.1267 3.26203 10.9733 3.26203 12.04C3.26203 13.1067 3.5287 13.96 4.06203 14.6C4.59536 15.2267 5.27536 15.54 6.10203 15.54ZM27.9403 10.28C26.4203 10.28 25.087 10.1 23.9403 9.74C22.7936 9.36667 21.907 8.84 21.2803 8.16C20.6536 7.46667 20.3403 6.65333 20.3403 5.72C20.3403 4.78667 20.6536 3.98 21.2803 3.3C21.907 2.60667 22.7936 2.08 23.9403 1.72C25.087 1.34667 26.4203 1.16 27.9403 1.16C29.4603 1.16 30.7936 1.34667 31.9403 1.72C33.087 2.08 33.9736 2.60667 34.6003 3.3C35.227 3.98 35.5403 4.78667 35.5403 5.72C35.5403 6.65333 35.227 7.46667 34.6003 8.16C33.9736 8.84 33.087 9.36667 31.9403 9.74C30.7936 10.1 29.4603 10.28 27.9403 10.28ZM27.9403 2.94C26.287 2.94 24.947 3.18667 23.9203 3.68C22.907 4.17333 22.4003 4.85333 22.4003 5.72C22.4003 6.58667 22.907 7.26667 23.9203 7.76C24.947 8.25333 26.287 8.5 27.9403 8.5C29.5936 8.5 30.927 8.25333 31.9403 7.76C32.967 7.26667 33.4803 6.58667 33.4803 5.72C33.4803 4.85333 32.967 4.17333 31.9403 3.68C30.927 3.18667 29.5936 2.94 27.9403 2.94ZM36.4803 13.7H28.9403V18.48H26.9203V13.7H19.4203V11.86H36.4803V13.7ZM55.0786 0.999999V11.92H53.1986V6.9H50.4186V11.74H48.5386V1.1H50.4186V5.08H53.1986V0.999999H55.0786ZM47.2986 10.52C46.2186 10.9467 44.6053 11.16 42.4586 11.16H39.1786V1.42H46.7386V3.08H41.0586V5.4H46.4986V7.02H41.0586V9.5H42.6186C44.6186 9.5 46.1786 9.29333 47.2986 8.88V10.52ZM39.9986 12.86H55.0786V18.08H53.1186V14.54H39.9986V12.86ZM73.8369 10.44H71.8569V0.999999H73.8369V10.44ZM63.9569 6.3C63.3169 7.27333 62.4969 8.07333 61.4969 8.7C60.4969 9.32667 59.3835 9.72667 58.1569 9.9V8.1C59.2102 7.91333 60.1369 7.49333 60.9369 6.84C61.7369 6.18667 62.3502 5.36667 62.7769 4.38C63.2169 3.39333 63.4369 2.32 63.4369 1.16L65.4169 1.28C65.4169 2.50667 65.2035 3.66 64.7769 4.74L70.1769 8.22L69.1569 9.68L63.9569 6.3ZM66.6769 11C68.9035 11 70.6969 11.2867 72.0569 11.86C73.4169 12.4333 74.0969 13.3267 74.0969 14.54C74.0969 15.7533 73.4169 16.6467 72.0569 17.22C70.6969 17.7933 68.9035 18.08 66.6769 18.08C64.4502 18.08 62.6569 17.7933 61.2969 17.22C59.9369 16.6467 59.2569 15.7533 59.2569 14.54C59.2569 13.3267 59.9369 12.4333 61.2969 11.86C62.6569 11.2867 64.4502 11 66.6769 11ZM66.6769 16.44C68.2502 16.44 69.5235 16.28 70.4969 15.96C71.4835 15.64 71.9769 15.1667 71.9769 14.54C71.9769 13.9133 71.4835 13.44 70.4969 13.12C69.5102 12.8 68.2369 12.64 66.6769 12.64C65.1169 12.64 63.8435 12.8 62.8569 13.12C61.8702 13.44 61.3769 13.9133 61.3769 14.54C61.3769 15.1667 61.8702 15.64 62.8569 15.96C63.8435 16.28 65.1169 16.44 66.6769 16.44Z" fill="white"/>
</svg>
