<svg width="17" height="12" viewBox="0 0 17 12" fill="none" xmlns="http://www.w3.org/2000/svg">
<path d="M16.725 6.15665L16.578 6.06465C16.2916 5.80633 15.9522 5.6137 15.5836 5.50022C15.215 5.38674 14.8261 5.35514 14.444 5.40765C13.7797 5.46242 13.1393 5.68093 12.58 6.04365V6.02264C12.5847 5.76984 12.603 5.51747 12.635 5.26665C12.6662 5.01106 12.6846 4.75407 12.69 4.49665C12.6985 4.25764 12.658 4.01942 12.571 3.79665C12.5599 3.77095 12.5412 3.74925 12.5174 3.73442C12.4937 3.7196 12.466 3.71235 12.438 3.71365C12.1347 3.74124 11.8415 3.83659 11.58 3.99265L11.515 4.13265C11.5123 4.51536 11.4697 4.89675 11.388 5.27065L11.355 5.36365C11.2492 6.32523 11.2458 7.29535 11.345 8.25765C11.355 8.34065 11.517 8.46365 11.645 8.50965C11.9231 8.51888 12.1997 8.46628 12.455 8.35565L12.549 8.34064C12.5863 8.33521 12.6198 8.31519 12.6423 8.285C12.6648 8.2548 12.6744 8.21691 12.669 8.17965L12.674 7.94065C12.7857 7.5265 13.0068 7.15009 13.3142 6.85095C13.6217 6.55181 14.004 6.34099 14.421 6.24065C14.6298 6.19512 14.8469 6.20535 15.0506 6.2703C15.2542 6.33524 15.4371 6.45262 15.581 6.61065C15.6744 7.00846 15.6072 7.42704 15.394 7.77565C15.0889 8.26981 14.6166 8.63812 14.063 8.81365C13.4116 9.04387 12.7205 9.14012 12.031 9.09665C11.998 9.07565 11.284 8.59665 11.284 8.59665C10.6216 8.09801 9.90427 7.67693 9.146 7.34165C8.97146 7.24659 8.8084 7.13185 8.66 6.99965L8.587 6.93965C8.175 6.61265 7.392 6.09965 6.763 5.68065L6.425 5.45465C6.425 5.43165 6.425 5.38465 6.425 5.38465C6.443 5.36465 6.838 5.13065 6.838 5.13065C7.14679 4.97929 7.43621 4.79127 7.7 4.57065C7.688 4.58365 7.773 4.52765 7.773 4.52765L9.145 3.75865C10.436 3.13698 11.6422 2.35261 12.734 1.42465L12.773 1.30265L12.791 1.19265C12.8419 1.04537 12.845 0.885811 12.8 0.736645C12.7928 0.712228 12.7793 0.690132 12.7609 0.672578C12.7425 0.655024 12.7197 0.642632 12.695 0.636645C12.295 0.648805 11.9014 0.740889 11.5375 0.907477C11.1735 1.07407 10.8466 1.31179 10.576 1.60665C10.4435 1.72696 10.2947 1.82796 10.134 1.90665L10.026 1.96665C9.237 2.41265 7.454 3.50865 6.52 4.09965C6.609 2.89555 6.76928 1.69778 7 0.512645L6.97 0.370645L6.87 0.193645L6.8 0.0646453L6.78 0.0586453C6.63893 -0.0087744 6.47711 -0.018462 6.329 0.0316453L6.143 0.0996453L5.895 0.189645C5.87214 0.194041 5.85085 0.204405 5.83329 0.219684C5.81573 0.234963 5.80252 0.254614 5.795 0.276645C5.28786 1.6325 4.98162 3.05521 4.886 4.49965C4.20181 4.07534 3.49437 3.68973 2.767 3.34465L2.757 3.33865L2.709 3.32965C2.53178 3.28349 2.3644 3.20556 2.215 3.09965C2.197 3.09065 1.877 2.88265 1.877 2.88265L1.359 2.55365L1.222 2.52265C0.918736 2.61456 0.649213 2.79366 0.447 3.03765C0.43141 3.06211 0.423407 3.09064 0.424 3.11965C0.425808 3.1612 0.433553 3.20228 0.447 3.24165L0.47 3.34165L0.493 3.40565C0.947232 3.79775 1.44719 4.13352 1.982 4.40565L2.694 4.77965L3.783 5.36965L3.97 5.51465L4.099 5.58765L4.122 5.60165C3.829 5.79965 2.139 6.91865 2.139 6.91865L1.1 7.59965C1 7.66565 0.59 7.84765 0.5 7.88565C0.302786 7.95138 0.136363 8.08686 0.032 8.26665L0 8.33165L0.028 8.37065L0.108 8.43064L0.215 8.50065L0.33 8.57865L0.438 8.59965C0.775815 8.5533 1.10204 8.44444 1.4 8.27865C1.865 8.07865 3.131 7.31765 3.673 6.99465L3.903 6.85865C4.01595 6.84579 4.12145 6.79585 4.203 6.71665C4.35501 6.60276 4.51818 6.50459 4.69 6.42365C4.695 6.42365 4.778 6.37665 4.855 6.33365V6.39465C4.84577 7.65132 4.94615 8.90641 5.155 10.1456V10.1626L5.174 10.2006C5.29913 10.4762 5.39272 10.7651 5.453 11.0616L5.66 11.7456C5.66 11.7546 5.718 11.8096 5.718 11.8096C5.93351 11.936 6.1792 12.0016 6.429 11.9996L6.489 11.9936L6.527 11.9086C6.54631 11.8051 6.55536 11.6999 6.554 11.5946C6.554 11.4696 6.544 11.3326 6.533 11.1626L6.517 10.9156C6.442 9.77065 6.365 8.11565 6.365 7.01565V6.92865L7.421 7.58665C8.97816 8.68535 10.6557 9.60262 12.421 10.3206C12.4542 10.3307 12.4895 10.3319 12.5233 10.3242C12.5572 10.3165 12.5884 10.3001 12.614 10.2766L12.819 10.1466L12.857 10.1306C12.902 10.0951 12.9378 10.0493 12.9616 9.99715C12.9855 9.945 12.9966 9.88793 12.994 9.83065C13.6549 9.82098 14.3074 9.68074 14.9139 9.41799C15.5204 9.15525 16.0689 8.77518 16.528 8.29965C16.8288 7.92186 16.9949 7.45451 17 6.97165C17.0198 6.67429 16.9209 6.38122 16.725 6.15665Z" fill="#FF9D00"/>
</svg>
