<svg width="12" height="12" viewBox="0 0 12 12" fill="none" xmlns="http://www.w3.org/2000/svg">
<path d="M0.249324 0.017067C0.439267 0.00214037 0.629878 -0.00253308 0.820324 0.00306704C4.41099 0.00306704 8.00132 0.00306704 11.5913 0.00306704C11.6456 -0.0040482 11.7009 0.00125485 11.7528 0.0185767C11.8048 0.0358985 11.8521 0.0647874 11.8913 0.103067C12.0363 0.247067 11.9843 0.465067 11.9913 0.647067C11.9873 4.31373 11.9873 7.9804 11.9913 11.6471C11.9905 11.697 11.9791 11.7461 11.9579 11.7913C11.9368 11.8365 11.9064 11.8768 11.8686 11.9094C11.8309 11.9421 11.7867 11.9664 11.7389 11.9808C11.6911 11.9952 11.6408 11.9994 11.5913 11.9931C7.84466 11.9997 4.09799 12.0031 0.351324 12.0031C0.304914 12.0049 0.258629 11.9971 0.215357 11.9802C0.172085 11.9634 0.132754 11.9378 0.0998183 11.905C0.066883 11.8723 0.0410503 11.8331 0.023932 11.7899C0.00681367 11.7467 -0.00122278 11.7005 0.000324108 11.6541C0.000324108 7.88673 0.000324108 4.12007 0.000324108 0.354067C-0.00303909 0.277874 0.0198541 0.202835 0.0651765 0.141495C0.110499 0.0801551 0.175504 0.0362315 0.249324 0.017067ZM2.71032 3.00307C2.71032 5.00307 2.71032 7.00307 2.71032 9.00307C3.46032 9.00307 4.21032 9.00307 4.95932 9.00307C4.97032 8.01107 4.94532 7.01707 4.97232 6.02507C5.21832 6.36807 5.44232 6.72507 5.69332 7.06707C6.11332 7.71907 6.58832 8.33507 6.99332 8.99607C7.74832 9.01607 8.50233 8.99607 9.25832 9.00807C9.26632 8.91407 9.27432 8.82007 9.27432 8.72607C9.26332 6.81607 9.28332 4.90507 9.26432 2.99507C8.51732 2.98907 7.77132 2.99507 7.02532 2.99507C7.01932 3.99507 7.03132 4.99507 7.01832 5.98807C6.32532 5.00307 5.67032 3.98407 4.96032 3.01007C4.21232 2.97607 3.45932 3.00307 2.71032 3.00307Z" fill="#50AA34"/>
</svg>
