<svg width="13" height="12" viewBox="0 0 13 12" fill="none" xmlns="http://www.w3.org/2000/svg">
<path d="M7.20668 2.72753L7.74868 0.219533C7.75576 0.190058 7.75518 0.159266 7.74702 0.130074C7.73886 0.100882 7.72338 0.0742577 7.70205 0.0527245C7.68072 0.0311913 7.65424 0.0154625 7.62512 0.0070288C7.59601 -0.00140491 7.56522 -0.00226412 7.53568 0.00453261C6.7079 0.153429 5.89949 0.394947 5.12568 0.724533C1.48568 2.24753 -0.718316 5.22453 0.213684 7.37853C0.913684 8.99253 3.17168 9.67853 5.79568 9.27853L5.25368 11.7865C5.24762 11.8157 5.24896 11.8458 5.25757 11.8743C5.26618 11.9028 5.28179 11.9287 5.30298 11.9496C5.32417 11.9704 5.35025 11.9857 5.37885 11.9939C5.40745 12.0021 5.43764 12.003 5.46668 11.9965C6.29447 11.8476 7.10288 11.6061 7.87668 11.2765C11.5167 9.75853 13.7137 6.78153 12.7887 4.62153C12.0947 3.01353 9.83668 2.32153 7.20668 2.72153" fill="#0064FF"/>
</svg>
