<svg width="16" height="20" viewBox="0 0 16 20" fill="none" xmlns="http://www.w3.org/2000/svg">
<path fill-rule="evenodd" clip-rule="evenodd" d="M8.82797 1.74C9.18274 1.24179 9.64272 0.827674 10.1753 0.526985C10.7079 0.226296 11.3001 0.0463875 11.91 0C11.9625 0.57403 11.8998 1.15277 11.7257 1.70226C11.5516 2.25176 11.2695 2.76095 10.896 3.2C10.5715 3.6663 10.1316 4.04044 9.61929 4.28584C9.10695 4.53123 8.5397 4.63948 7.97299 4.6C7.91318 4.09018 7.95817 3.57352 8.10519 3.08172C8.25222 2.58991 8.49817 2.13334 8.82797 1.74Z" fill="white"/>
<path fill-rule="evenodd" clip-rule="evenodd" d="M8.13695 5.73799C8.79995 5.73799 10.032 4.80901 11.637 4.80901C12.3963 4.77929 13.1502 4.94813 13.8244 5.29888C14.4985 5.64962 15.0695 6.17013 15.4809 6.80901C14.8259 7.19897 14.285 7.75432 13.9123 8.41936C13.5397 9.0844 13.3485 9.83572 13.358 10.598C13.3564 11.4597 13.6055 12.3034 14.075 13.026C14.5444 13.7487 15.2139 14.3192 16.002 14.668C16.002 14.668 14.154 19.968 11.657 19.968C10.51 19.968 9.61895 19.181 8.41095 19.181C7.17995 19.181 5.95795 19.998 5.16195 19.998C2.88195 19.998 0.00195312 14.969 0.00195312 10.927C0.00195312 6.94999 2.43995 4.86299 4.72595 4.86299C6.20595 4.86499 7.36495 5.73799 8.13695 5.73799Z" fill="white"/>
</svg>
