<svg width="20" height="20" viewBox="0 0 20 20" fill="none" xmlns="http://www.w3.org/2000/svg">
<mask id="mask0_0_393" style="mask-type:luminance" maskUnits="userSpaceOnUse" x="10" y="8" width="11" height="10">
<path d="M10.204 8.18091V12.0489H15.696C15.5797 12.6641 15.3391 13.2491 14.9888 13.768C14.6385 14.287 14.186 14.729 13.659 15.0669V17.5809H16.959C17.9602 16.6418 18.7496 15.5001 19.2747 14.2318C19.7997 12.9635 20.0484 11.5979 20.004 10.2259C20.003 9.53988 19.9394 8.85537 19.814 8.18091H10.204Z" fill="white"/>
</mask>
<g mask="url(#mask0_0_393)">
<path d="M4.53497 23.132H25.669V2.625H4.53497V23.132Z" fill="#3E82F1"/>
</g>
<mask id="mask1_0_393" style="mask-type:luminance" maskUnits="userSpaceOnUse" x="1" y="11" width="16" height="10">
<path d="M1.08502 11.8999V14.4909C1.95169 16.1587 3.26139 17.5553 4.87015 18.5272C6.47892 19.4991 8.32449 20.0087 10.204 19.9999C12.6795 20.0691 15.0903 19.2041 16.957 17.5769L13.657 15.0679C12.6239 15.7181 11.4224 16.0502 10.202 16.0229C8.94001 16.0145 7.71202 15.6128 6.68896 14.8738C5.6659 14.1348 4.89866 13.0953 4.49402 11.8999L1.08502 11.8999Z" fill="white"/>
</mask>
<g mask="url(#mask1_0_393)">
<path d="M-4.58398 25.555H22.626V6.34399H-4.58398V25.555Z" fill="#32A753"/>
</g>
<mask id="mask2_0_393" style="mask-type:luminance" maskUnits="userSpaceOnUse" x="0" y="5" width="5" height="10">
<path d="M1.085 5.50879C0.371779 6.89837 -0.000153742 8.43786 4.7673e-08 9.99979C-0.000115353 11.5617 0.371815 13.1012 1.085 14.4908L4.494 11.8998C4.28394 11.2883 4.17583 10.6464 4.174 9.99979C4.17583 9.3532 4.28394 8.71131 4.494 8.09979V5.50879H1.085Z" fill="white"/>
</mask>
<g mask="url(#mask2_0_393)">
<path d="M-5.66901 20.0459H10.163V-0.0471191H-5.66901V20.0459Z" fill="#F9BB00"/>
</g>
<mask id="mask3_0_393" style="mask-type:luminance" maskUnits="userSpaceOnUse" x="1" y="-1" width="17" height="10">
<path d="M1.08502 5.5089L4.49402 8.09991C4.89864 6.90409 5.66615 5.86425 6.68964 5.12522C7.71313 4.38619 8.94163 3.98478 10.204 3.9769C11.6493 3.95229 13.0477 4.49012 14.104 5.4769L17.031 2.5999C15.1691 0.896093 12.7276 -0.0337218 10.204 -9.53171e-05C8.32449 -0.00886017 6.47892 0.500706 4.87015 1.4726C3.26139 2.4445 1.95169 3.84109 1.08502 5.5089Z" fill="white"/>
</mask>
<g mask="url(#mask3_0_393)">
<path d="M-4.58398 13.6548H22.7V-5.55615H-4.58398V13.6548Z" fill="#E74133"/>
</g>
</svg>
