<svg width="22" height="20" viewBox="0 0 22 20" fill="none" xmlns="http://www.w3.org/2000/svg">
<path d="M10.999 0C4.92402 0 -0.000976562 3.828 -0.000976562 8.553C-0.000976562 11.592 2.04003 14.253 5.09903 15.775L4.06203 19.584C4.04299 19.64 4.04021 19.7003 4.05402 19.7578C4.06782 19.8153 4.09765 19.8677 4.14003 19.909C4.16972 19.9382 4.20486 19.9613 4.24347 19.9769C4.28208 19.9925 4.32339 20.0003 4.36504 20C4.4348 19.9972 4.50178 19.972 4.55603 19.928L9.01404 16.965C9.66987 17.0591 10.3315 17.1068 10.994 17.108C17.068 17.108 21.994 13.279 21.994 8.55399C21.994 3.82899 17.067 0.000999451 10.994 0.000999451" fill="#2D1617"/>
</svg>
