<svg width="17" height="17" viewBox="0 0 17 17" fill="none" xmlns="http://www.w3.org/2000/svg">
<path d="M8.5 5.16699V11.834" stroke="#717274" stroke-width="1.5" stroke-linecap="round" stroke-linejoin="round"/>
<path d="M11.835 8.5H5.16797" stroke="#717274" stroke-width="1.5" stroke-linecap="round" stroke-linejoin="round"/>
<path d="M8.5 16C7.01664 16 5.5666 15.5601 4.33323 14.736C3.09986 13.9119 2.13856 12.7406 1.57091 11.3701C1.00325 9.99968 0.854725 8.49168 1.14411 7.03683C1.4335 5.58197 2.14781 4.2456 3.1967 3.1967C4.2456 2.14781 5.58197 1.4335 7.03683 1.14411C8.49168 0.854725 9.99968 1.00325 11.3701 1.57091C12.7406 2.13856 13.9119 3.09986 14.736 4.33323C15.5601 5.5666 16 7.01664 16 8.5C16 10.4891 15.2098 12.3968 13.8033 13.8033C12.3968 15.2098 10.4891 16 8.5 16Z" stroke="#717274" stroke-width="1.5" stroke-linecap="round" stroke-linejoin="round"/>
</svg>
