<svg width="16" height="16" viewBox="0 0 16 16" fill="none" xmlns="http://www.w3.org/2000/svg">
<path d="M14.1057 11.4187C14.9332 9.94226 15.1984 8.21625 14.8523 6.5595C14.5063 4.90275 13.5723 3.42722 12.223 2.40547C10.8737 1.38372 9.20026 0.884806 7.51174 1.00089C5.82322 1.11697 4.23376 1.8402 3.03698 3.03698C1.8402 4.23376 1.11697 5.82322 1.00089 7.51174C0.884806 9.20026 1.38372 10.8737 2.40547 12.223C3.42722 13.5723 4.90275 14.5063 6.5595 14.8523C8.21625 15.1984 9.94226 14.9332 11.4187 14.1057L14.9997 15.0057L14.1057 11.4187Z" stroke="#323232" stroke-width="1.588" stroke-linecap="round" stroke-linejoin="round"/>
<path d="M7.86183 8.25086C7.88906 8.22348 7.9238 8.2048 7.96166 8.19719C7.99951 8.18957 8.03878 8.19337 8.07447 8.2081C8.11017 8.22283 8.14069 8.24782 8.16216 8.27991C8.18364 8.312 8.1951 8.34975 8.1951 8.38836C8.1951 8.42697 8.18364 8.46472 8.16216 8.49681C8.14069 8.5289 8.11017 8.55389 8.07447 8.56862C8.03878 8.58335 7.99951 8.58715 7.96166 8.57953C7.9238 8.57192 7.88906 8.55324 7.86183 8.52586C7.84372 8.50783 7.82935 8.48641 7.81954 8.46281C7.80974 8.43921 7.80469 8.41391 7.80469 8.38836C7.80469 8.36281 7.80974 8.33751 7.81954 8.31391C7.82935 8.29031 7.84372 8.26889 7.86183 8.25086Z" stroke="#4996FF" stroke-width="1.5" stroke-linecap="round" stroke-linejoin="round"/>
<path d="M4.75246 8.25086C4.77968 8.22348 4.81443 8.2048 4.85228 8.19719C4.89014 8.18957 4.9294 8.19337 4.9651 8.2081C5.00079 8.22283 5.03131 8.24782 5.05279 8.27991C5.07426 8.312 5.08573 8.34975 5.08573 8.38836C5.08573 8.42697 5.07426 8.46472 5.05279 8.49681C5.03131 8.5289 5.00079 8.55389 4.9651 8.56862C4.9294 8.58335 4.89014 8.58715 4.85228 8.57953C4.81443 8.57192 4.77968 8.55324 4.75246 8.52586C4.73434 8.50783 4.71997 8.48641 4.71017 8.46281C4.70036 8.43921 4.69531 8.41391 4.69531 8.38836C4.69531 8.36281 4.70036 8.33751 4.71017 8.31391C4.71997 8.29031 4.73434 8.26889 4.75246 8.25086Z" stroke="#4996FF" stroke-width="1.5" stroke-linecap="round" stroke-linejoin="round"/>
<path d="M10.9712 8.25086C10.9984 8.22348 11.0332 8.2048 11.071 8.19719C11.1089 8.18957 11.1482 8.19337 11.1838 8.2081C11.2195 8.22283 11.2501 8.24782 11.2715 8.27991C11.293 8.312 11.3045 8.34975 11.3045 8.38836C11.3045 8.42697 11.293 8.46472 11.2715 8.49681C11.2501 8.5289 11.2195 8.55389 11.1838 8.56862C11.1482 8.58335 11.1089 8.58715 11.071 8.57953C11.0332 8.57192 10.9984 8.55324 10.9712 8.52586C10.9531 8.50783 10.9387 8.48641 10.9289 8.46281C10.9191 8.43921 10.9141 8.41391 10.9141 8.38836C10.9141 8.36281 10.9191 8.33751 10.9289 8.31391C10.9387 8.29031 10.9531 8.26889 10.9712 8.25086Z" stroke="#4996FF" stroke-width="1.5" stroke-linecap="round" stroke-linejoin="round"/>
</svg>
