<svg width="17" height="17" viewBox="0 0 17 17" fill="none" xmlns="http://www.w3.org/2000/svg">
<path d="M8.5 16C7.01664 16 5.5666 15.5601 4.33323 14.736C3.09986 13.9119 2.13856 12.7406 1.57091 11.3701C1.00325 9.99968 0.854725 8.49168 1.14411 7.03683C1.4335 5.58197 2.14781 4.2456 3.1967 3.1967C4.2456 2.14781 5.58197 1.4335 7.03683 1.14411C8.49168 0.854725 9.99968 1.00325 11.3701 1.57091C12.7406 2.13856 13.9119 3.09986 14.736 4.33323C15.5601 5.5666 16 7.01664 16 8.5C16 10.4891 15.2098 12.3968 13.8033 13.8033C12.3968 15.2098 10.4891 16 8.5 16Z" stroke="#A3A5A8" stroke-width="1.5" stroke-linecap="round" stroke-linejoin="round"/>
<path d="M8.50048 9.54489V9.33389C8.50999 9.05686 8.5931 8.78736 8.74125 8.55309C8.88941 8.31882 9.09727 8.12822 9.34348 8.00089C9.58424 7.87574 9.78742 7.68886 9.9322 7.45938C10.077 7.2299 10.1582 6.96607 10.1675 6.69489C10.1729 6.4726 10.1339 6.25148 10.0526 6.04452C9.97125 5.83757 9.84937 5.64898 9.69408 5.48984C9.53879 5.3307 9.35324 5.20423 9.14834 5.11789C8.94344 5.03154 8.72333 4.98706 8.50098 4.98706C8.27863 4.98706 8.05853 5.03154 7.85363 5.11789C7.64873 5.20423 7.46318 5.3307 7.30789 5.48984C7.1526 5.64898 7.03072 5.83757 6.94942 6.04452C6.86812 6.25148 6.82904 6.4726 6.83448 6.69489" stroke="#A3A5A8" stroke-width="1.5" stroke-linecap="round" stroke-linejoin="round"/>
<path d="M8.49997 11.833C8.45887 11.8332 8.41876 11.8456 8.38468 11.8686C8.35061 11.8915 8.32411 11.9241 8.30852 11.9621C8.29293 12.0001 8.28895 12.0419 8.29709 12.0822C8.30523 12.1225 8.32512 12.1595 8.35424 12.1884C8.38337 12.2174 8.42044 12.2371 8.46076 12.2451C8.50108 12.253 8.54285 12.2489 8.5808 12.2331C8.61874 12.2173 8.65117 12.1907 8.67398 12.1565C8.69679 12.1223 8.70897 12.0821 8.70897 12.041C8.7091 12.0136 8.70378 11.9864 8.69331 11.961C8.68284 11.9357 8.66744 11.9126 8.64799 11.8933C8.62854 11.8739 8.60544 11.8586 8.58003 11.8483C8.55462 11.8379 8.5274 11.8328 8.49997 11.833Z" stroke="#A3A5A8" stroke-width="1.5" stroke-linecap="round" stroke-linejoin="round"/>
</svg>
