<svg width="24" height="24" viewBox="0 0 24 24" fill="none" xmlns="http://www.w3.org/2000/svg">
<path d="M11.9998 20.5561C16.7252 20.5561 20.5558 16.7254 20.5558 12.0001C20.5558 7.27474 16.7252 3.44409 11.9998 3.44409C7.2745 3.44409 3.44385 7.27474 3.44385 12.0001C3.44385 16.7254 7.2745 20.5561 11.9998 20.5561Z" stroke="#1B1C1F" stroke-width="1.5" stroke-linecap="round" stroke-linejoin="round"/>
<path d="M12.0002 14.4439C13.3499 14.4439 14.4442 13.3497 14.4442 11.9999C14.4442 10.6501 13.3499 9.55591 12.0002 9.55591C10.6504 9.55591 9.55615 10.6501 9.55615 11.9999C9.55615 13.3497 10.6504 14.4439 12.0002 14.4439Z" stroke="#1B1C1F" stroke-width="1.5" stroke-linecap="round" stroke-linejoin="round"/>
<path d="M12 23.0001V18.1111" stroke="#1B1C1F" stroke-width="1.5" stroke-linecap="round" stroke-linejoin="round"/>
<path d="M12 1V5.889" stroke="#1B1C1F" stroke-width="1.5" stroke-linecap="round" stroke-linejoin="round"/>
<path d="M5.889 12H1" stroke="#1B1C1F" stroke-width="1.5" stroke-linecap="round" stroke-linejoin="round"/>
<path d="M22.9998 12H18.1108" stroke="#1B1C1F" stroke-width="1.5" stroke-linecap="round" stroke-linejoin="round"/>
</svg>
