<svg width="17" height="17" viewBox="0 0 17 17" fill="none" xmlns="http://www.w3.org/2000/svg">
<path d="M8.5 16C7.01664 16 5.5666 15.5601 4.33323 14.736C3.09986 13.9119 2.13856 12.7406 1.57091 11.3701C1.00325 9.99968 0.854725 8.49168 1.14411 7.03683C1.4335 5.58197 2.14781 4.2456 3.1967 3.1967C4.2456 2.14781 5.58197 1.4335 7.03683 1.14411C8.49168 0.854725 9.99968 1.00325 11.3701 1.57091C12.7406 2.13856 13.9119 3.09986 14.736 4.33323C15.5601 5.5666 16 7.01664 16 8.5C16 10.4891 15.2098 12.3968 13.8033 13.8033C12.3968 15.2098 10.4891 16 8.5 16Z" stroke="#A3A5A8" stroke-linecap="round" stroke-linejoin="round"/>
<path d="M8.49953 9.54489V9.33389C8.50894 9.05696 8.5919 8.78753 8.73987 8.55327C8.88784 8.31901 9.09551 8.12835 9.34153 8.00089C9.58229 7.87574 9.78546 7.68886 9.93025 7.45938C10.075 7.2299 10.1562 6.96607 10.1655 6.69489C10.171 6.4726 10.1319 6.25148 10.0506 6.04452C9.96929 5.83757 9.84741 5.64898 9.69212 5.48984C9.53684 5.3307 9.35128 5.20423 9.14638 5.11789C8.94148 5.03154 8.72138 4.98706 8.49903 4.98706C8.27668 4.98706 8.05658 5.03154 7.85168 5.11789C7.64678 5.20423 7.46122 5.3307 7.30594 5.48984C7.15065 5.64898 7.02877 5.83757 6.94747 6.04452C6.86616 6.25148 6.82709 6.4726 6.83253 6.69489" stroke="#A3A5A8" stroke-linecap="round" stroke-linejoin="round"/>
<path d="M8.49899 11.833C8.4579 11.8332 8.41778 11.8456 8.38371 11.8686C8.34963 11.8915 8.32313 11.9241 8.30754 11.9621C8.29195 12.0001 8.28797 12.0419 8.29611 12.0822C8.30425 12.1225 8.32414 12.1595 8.35327 12.1884C8.3824 12.2174 8.41946 12.2371 8.45978 12.2451C8.5001 12.253 8.54187 12.2489 8.57982 12.2331C8.61777 12.2173 8.65019 12.1907 8.67301 12.1565C8.69582 12.1223 8.70799 12.0821 8.70799 12.041C8.70813 12.0136 8.7028 11.9864 8.69234 11.961C8.68187 11.9357 8.66646 11.9126 8.64701 11.8933C8.62757 11.8739 8.60447 11.8586 8.57905 11.8483C8.55364 11.8379 8.52643 11.8328 8.49899 11.833Z" stroke="#A3A5A8" stroke-linecap="round" stroke-linejoin="round"/>
</svg>
